{
  "accessors": [
    {
      "bufferView": 2,
      "componentType": 5126,
      "count": 1270,
      "max": [
        0.8054075241088867,
        8.670257568359375,
        14.145088195800781
      ],
      "min": [
        -0.2475358247756958,
        -8.685028076171875,
        13.481257438659668
      ],
      "type": "VEC3"
    },
    {
      "bufferView": 2,
      "byteOffset": 15240,
      "componentType": 5126,
      "count": 1270,
      "max": [
        0.998939573764801,
        0.9915711879730225,
        0.9999932646751404
      ],
      "min": [
        -0.9988468885421753,
        -0.991570770740509,
        -0.9999856948852539
      ],
      "type": "VEC3"
    },
    {
      "bufferView": 1,
      "componentType": 5126,
      "count": 1270,
      "max": [
        0.9022491574287415,
        0.7131138443946838
      ],
      "min": [
        0.0016820048913359642,
        0.01397373154759407
      ],
      "type": "VEC2"
    },
    {
      "bufferView": 0,
      "componentType": 5125,
      "count": 1896,
      "type": "SCALAR"
    },
    {
      "bufferView": 2,
      "byteOffset": 30480,
      "componentType": 5126,
      "count": 434,
      "max": [
        1.673095464706421,
        2.160166025161743,
        7.894159317016602
      ],
      "min": [
        -1.043715238571167,
        -2.159909963607788,
        -0.023706436157226563
      ],
      "type": "VEC3"
    },
    {
      "bufferView": 2,
      "byteOffset": 35688,
      "componentType": 5126,
      "count": 434,
      "max": [
        0.9579155445098877,
        0.9999926090240479,
        1.0
      ],
      "min": [
        -0.894580066204071,
        -0.9999926090240479,
        -0.9999054670333862
      ],
      "type": "VEC3"
    },
    {
      "bufferView": 1,
      "byteOffset": 10160,
      "componentType": 5126,
      "count": 434,
      "max": [
        0.9120331406593323,
        0.9939014315605164
      ],
      "min": [
        0.2159537971019745,
        0.07036235928535461
      ],
      "type": "VEC2"
    },
    {
      "bufferView": 0,
      "byteOffset": 7584,
      "componentType": 5125,
      "count": 666,
      "type": "SCALAR"
    },
    {
      "bufferView": 2,
      "byteOffset": 40896,
      "componentType": 5126,
      "count": 480,
      "max": [
        1.1611659526824951,
        7.212944030761719,
        15.07533073425293
      ],
      "min": [
        -0.8836718797683716,
        -7.19185733795166,
        13.570417404174805
      ],
      "type": "VEC3"
    },
    {
      "bufferView": 2,
      "byteOffset": 46656,
      "componentType": 5126,
      "count": 480,
      "max": [
        0.9546868801116943,
        0.9998310208320618,
        0.9992793798446655
      ],
      "min": [
        -0.9364198446273804,
        -0.9998310208320618,
        -0.9927058815956116
      ],
      "type": "VEC3"
    },
    {
      "bufferView": 1,
      "byteOffset": 13632,
      "componentType": 5126,
      "count": 480,
      "max": [
        0.9817374348640442,
        0.7106239199638367
      ],
      "min": [
        0.18990591168403625,
        0.18898014724254608
      ],
      "type": "VEC2"
    },
    {
      "bufferView": 0,
      "byteOffset": 10248,
      "componentType": 5125,
      "count": 732,
      "type": "SCALAR"
    },
    {
      "bufferView": 2,
      "byteOffset": 52416,
      "componentType": 5126,
      "count": 638,
      "max": [
        7.416693687438965,
        9.760076522827148,
        72.07808685302734
      ],
      "min": [
        -5.694209098815918,
        -9.760076522827148,
        39.44239044189453
      ],
      "type": "VEC3"
    },
    {
      "bufferView": 2,
      "byteOffset": 60072,
      "componentType": 5126,
      "count": 638,
      "max": [
        0.9955635666847229,
        0.992401659488678,
        0.951331377029419
      ],
      "min": [
        -0.9998425245285034,
        -1.0,
        -0.994125247001648
      ],
      "type": "VEC3"
    },
    {
      "bufferView": 1,
      "byteOffset": 17472,
      "componentType": 5126,
      "count": 638,
      "max": [
        0.9031476378440857,
        0.785230815410614
      ],
      "min": [
        0.26801830530166626,
        0.3432435393333435
      ],
      "type": "VEC2"
    },
    {
      "bufferView": 0,
      "byteOffset": 13176,
      "componentType": 5125,
      "count": 984,
      "type": "SCALAR"
    },
    {
      "bufferView": 2,
      "byteOffset": 67728,
      "componentType": 5126,
      "count": 734,
      "max": [
        4.983251571655273,
        3.894286870956421,
        83.21009063720703
      ],
      "min": [
        -4.563817024230957,
        -3.8357467651367188,
        64.7547607421875
      ],
      "type": "VEC3"
    },
    {
      "bufferView": 2,
      "byteOffset": 76536,
      "componentType": 5126,
      "count": 734,
      "max": [
        0.9987322092056274,
        0.9999880194664001,
        0.9967961311340332
      ],
      "min": [
        -0.9994651079177856,
        -0.9999880194664001,
        -0.9793595671653748
      ],
      "type": "VEC3"
    },
    {
      "bufferView": 1,
      "byteOffset": 22576,
      "componentType": 5126,
      "count": 734,
      "max": [
        0.8332288861274719,
        0.9724128842353821
      ],
      "min": [
        0.08661037683486938,
        0.7314499616622925
      ],
      "type": "VEC2"
    },
    {
      "bufferView": 0,
      "byteOffset": 17112,
      "componentType": 5125,
      "count": 1092,
      "type": "SCALAR"
    }
  ],
  "asset": {
    "extras": {
      "author": "thuglifer (https://sketchfab.com/thuglifer)",
      "license": "CC-BY-4.0 (http://creativecommons.org/licenses/by/4.0/)",
      "source": "https://sketchfab.com/3d-models/ps1-style-walter-white-0235c18fd3094d09a4131d153471e276",
      "title": "PS1 style Walter White"
    },
    "generator": "Sketchfab-12.63.0",
    "version": "2.0"
  },
  "bufferViews": [
    {
      "buffer": 0,
      "byteLength": 21480,
      "name": "floatBufferViews",
      "target": 34963
    },
    {
      "buffer": 0,
      "byteLength": 28448,
      "byteOffset": 21480,
      "byteStride": 8,
      "name": "floatBufferViews",
      "target": 34962
    },
    {
      "buffer": 0,
      "byteLength": 85344,
      "byteOffset": 49928,
      "byteStride": 12,
      "name": "floatBufferViews",
      "target": 34962
    }
  ],
  "buffers": [
    {
      "byteLength": 135272,
      "uri": "scene.bin"
    }
  ],
  "extensionsUsed": [
    "KHR_materials_unlit"
  ],
  "images": [
    {
      "uri": "textures/Material.003_baseColor.png"
    }
  ],
  "materials": [
    {
      "doubleSided": true,
      "extensions": {
        "KHR_materials_unlit": {}
      },
      "name": "Material.003",
      "pbrMetallicRoughness": {
        "baseColorTexture": {
          "index": 0
        },
        "metallicFactor": 0.0
      }
    },
    {
      "doubleSided": true,
      "extensions": {
        "KHR_materials_unlit": {}
      },
      "name": "Material.001",
      "pbrMetallicRoughness": {
        "baseColorTexture": {
          "index": 0
        },
        "metallicFactor": 0.0
      }
    },
    {
      "doubleSided": true,
      "extensions": {
        "KHR_materials_unlit": {}
      },
      "name": "Material.002",
      "pbrMetallicRoughness": {
        "baseColorTexture": {
          "index": 0
        },
        "metallicFactor": 0.0
      }
    },
    {
      "doubleSided": true,
      "extensions": {
        "KHR_materials_unlit": {}
      },
      "name": "Material",
      "pbrMetallicRoughness": {
        "baseColorTexture": {
          "index": 0
        },
        "metallicFactor": 0.0
      }
    }
  ],
  "meshes": [
    {
      "name": "Ladonee_Material.003_0",
      "primitives": [
        {
          "attributes": {
            "NORMAL": 1,
            "POSITION": 0,
            "TEXCOORD_0": 2
          },
          "indices": 3,
          "material": 0,
          "mode": 4
        }
      ]
    },
    {
      "name": "Nogi_Material.001_0",
      "primitives": [
        {
          "attributes": {
            "NORMAL": 5,
            "POSITION": 4,
            "TEXCOORD_0": 6
          },
          "indices": 7,
          "material": 1,
          "mode": 4
        }
      ]
    },
    {
      "name": "Rookee_Material.002_0",
      "primitives": [
        {
          "attributes": {
            "NORMAL": 9,
            "POSITION": 8,
            "TEXCOORD_0": 10
          },
          "indices": 11,
          "material": 2,
          "mode": 4
        }
      ]
    },
    {
      "name": "Tors_Material_0",
      "primitives": [
        {
          "attributes": {
            "NORMAL": 13,
            "POSITION": 12,
            "TEXCOORD_0": 14
          },
          "indices": 15,
          "material": 3,
          "mode": 4
        }
      ]
    },
    {
      "name": "Head_Material_0",
      "primitives": [
        {
          "attributes": {
            "NORMAL": 17,
            "POSITION": 16,
            "TEXCOORD_0": 18
          },
          "indices": 19,
          "material": 3,
          "mode": 4
        }
      ]
    }
  ],
  "nodes": [
    {
      "children": [
        1
      ],
      "matrix": [
        1.0,
        0.0,
        0.0,
        0.0,
        0.0,
        2.220446049250313e-16,
        -1.0,
        0.0,
        0.0,
        1.0,
        2.220446049250313e-16,
        0.0,
        0.0,
        0.0,
        0.0,
        1.0
      ],
      "name": "Sketchfab_model"
    },
    {
      "children": [
        2
      ],
      "matrix": [
        1.0,
        0.0,
        0.0,
        0.0,
        0.0,
        0.0,
        1.0,
        0.0,
        0.0,
        -1.0,
        0.0,
        0.0,
        0.0,
        0.0,
        0.0,
        1.0
      ],
      "name": "Hussainberg.fbx"
    },
    {
      "children": [
        3,
        5,
        7,
        9,
        11
      ],
      "name": "RootNode"
    },
    {
      "children": [
        4
      ],
      "matrix": [
        100.0,
        0.0,
        0.0,
        0.0,
        0.0,
        -1.629206793918314e-05,
        -99.99999999999868,
        0.0,
        0.0,
        99.99999999999868,
        -1.629206793918314e-05,
        0.0,
        17.008840560913086,
        -1111.2412109375,
        -74.31478881835938,
        1.0
      ],
      "name": "Ladonee"
    },
    {
      "mesh": 0,
      "name": "Ladonee_Material.003_0"
    },
    {
      "children": [
        6
      ],
      "matrix": [
        100.0,
        0.0,
        0.0,
        0.0,
        0.0,
        -1.577432940810312e-05,
        -96.82214355468622,
        0.0,
        0.0,
        118.54811859130703,
        -1.9313940021519395e-05,
        0.0,
        17.008853912353516,
        -1111.2412109375,
        -74.31478118896484,
        1.0
      ],
      "name": "Nogi"
    },
    {
      "mesh": 1,
      "name": "Nogi_Material.001_0"
    },
    {
      "children": [
        8
      ],
      "matrix": [
        100.0,
        0.0,
        0.0,
        0.0,
        0.0,
        -1.654270615050156e-05,
        -101.53840637206898,
        0.0,
        0.0,
        95.97721862792842,
        -1.5636673665000642e-05,
        0.0,
        17.00884246826172,
        -1111.2413330078125,
        -74.31478881835938,
        1.0
      ],
      "name": "Rookee"
    },
    {
      "mesh": 2,
      "name": "Rookee_Material.002_0"
    },
    {
      "children": [
        10
      ],
      "matrix": [
        21.084482192993164,
        0.0,
        0.0,
        0.0,
        0.0,
        -3.435098163507418e-06,
        -21.084482192992887,
        0.0,
        0.0,
        21.084482192992887,
        -3.435098163507418e-06,
        0.0,
        17.00884437561035,
        -1111.2412109375,
        -74.31478881835938,
        1.0
      ],
      "name": "Tors"
    },
    {
      "mesh": 3,
      "name": "Tors_Material_0"
    },
    {
      "children": [
        12
      ],
      "matrix": [
        21.084482192993164,
        0.0,
        0.0,
        0.0,
        0.0,
        -3.435098163507418e-06,
        -21.084482192992887,
        0.0,
        0.0,
        21.084482192992887,
        -3.435098163507418e-06,
        0.0,
        17.00884437561035,
        -1111.2412109375,
        -74.31478881835938,
        1.0
      ],
      "name": "Head"
    },
    {
      "mesh": 4,
      "name": "Head_Material_0"
    }
  ],
  "samplers": [
    {
      "magFilter": 9729,
      "minFilter": 9987,
      "wrapS": 10497,
      "wrapT": 10497
    }
  ],
  "scene": 0,
  "scenes": [
    {
      "name": "Sketchfab_Scene",
      "nodes": [
        0
      ]
    }
  ],
  "textures": [
    {
      "sampler": 0,
      "source": 0
    }
  ]
}
